<?xml version="1.0" standalone="no"?>
<!DOCTYPE svg PUBLIC "-//W3C//DTD SVG 20010904//EN"
 "http://www.w3.org/TR/2001/REC-SVG-20010904/DTD/svg10.dtd">
<svg version="1.0" xmlns="http://www.w3.org/2000/svg"
 width="100.000000pt" height="143.000000pt" viewBox="0 0 100.000000 143.000000"
 preserveAspectRatio="xMidYMid meet">

<g transform="translate(0.000000,143.000000) scale(0.100000,-0.100000)"
fill="#000000" stroke="none">
<path d="M325 1384 c-72 -25 -158 -56 -192 -67 -35 -12 -63 -24 -63 -27 0 -7
371 -150 390 -150 7 0 86 29 177 65 90 36 171 65 179 65 11 0 14 -18 14 -83 0
-46 -3 -87 -7 -91 -4 -3 -8 -37 -9 -75 -2 -56 0 -71 13 -76 29 -10 43 15 33
59 -5 23 -5 47 0 56 5 9 5 22 -1 31 -5 7 -9 57 -9 110 l0 96 -32 10 c-18 6
-106 36 -196 67 -89 31 -163 56 -165 56 -1 0 -60 -21 -132 -46z"/>
<path d="M192 1138 c4 -67 6 -73 40 -102 74 -64 231 -88 348 -53 115 34 153
79 148 172 l-3 54 -125 -49 c-69 -28 -133 -50 -143 -50 -10 0 -44 11 -76 25
-33 13 -89 36 -126 50 l-67 25 4 -72z"/>
<path d="M848 908 c-79 -7 -278 -45 -314 -58 -32 -13 -24 -27 20 -32 19 -2 33
-1 31 3 -6 9 237 59 288 59 16 0 17 -19 17 -269 l0 -268 -112 -12 c-164 -17
-158 -13 -158 -77 0 -60 2 -62 75 -44 22 6 96 14 163 19 68 5 127 13 130 16 4
4 9 145 10 315 l4 309 -38 3 c-28 2 -40 8 -44 23 -5 18 -10 19 -72 13z"/>
<path d="M77 890 c-4 -15 -14 -20 -41 -20 l-36 0 0 -314 0 -313 106 -7 c59 -4
141 -13 183 -21 42 -8 77 -15 79 -15 1 0 2 24 2 54 0 41 -4 55 -16 60 -17 7
-181 26 -223 26 l-24 0 4 270 4 270 30 0 c25 0 192 -32 285 -54 25 -6 60 8 49
19 -11 10 -303 65 -350 65 -38 0 -48 -4 -52 -20z"/>
<path d="M430 795 c-52 -16 -107 -65 -126 -112 -32 -75 -9 -191 55 -280 11
-15 22 -44 24 -63 2 -19 9 -35 15 -34 7 1 57 2 112 3 l100 1 0 31 c0 17 8 43
19 57 33 48 62 112 70 159 20 105 -43 208 -143 238 -59 18 -68 18 -126 0z
m156 -50 c28 -16 49 -39 63 -68 35 -73 26 -141 -33 -237 -19 -31 -38 -68 -41
-83 -7 -26 -9 -27 -80 -27 -73 0 -73 0 -80 29 -3 16 -20 51 -37 77 -63 99 -73
172 -35 244 45 85 157 115 243 65z"/>
<path d="M475 640 l-16 -30 36 0 c39 0 39 0 23 35 -15 33 -24 32 -43 -5z"/>
<path d="M460 470 l0 -130 35 0 35 0 0 130 0 130 -35 0 -35 0 0 -130z"/>
<path d="M390 276 c0 -7 3 -28 6 -45 l7 -32 96 3 c74 2 95 6 93 17 -1 7 2 19
8 26 6 7 8 20 4 29 -5 13 -23 16 -110 16 -82 0 -104 -3 -104 -14z"/>
<path d="M133 143 c-7 -2 -13 -13 -13 -24 0 -10 -6 -19 -14 -19 -24 0 -29 -20
-10 -41 23 -26 60 -24 89 6 23 22 25 22 25 5 0 -10 5 -22 10 -25 6 -4 10 13
10 44 0 28 -4 51 -10 51 -5 0 -10 -10 -10 -22 -1 -22 -1 -22 -12 -3 -18 33
-36 40 -65 28z m47 -18 c18 -22 7 -28 -23 -12 -15 8 -24 17 -20 20 11 12 30 8
43 -8z m-30 -25 c0 -5 -4 -10 -10 -10 -5 0 -10 5 -10 10 0 6 5 10 10 10 6 0
10 -4 10 -10z m40 -16 c0 -13 -53 -35 -70 -29 -38 12 -23 32 25 32 25 0 45 -2
45 -3z"/>
<path d="M252 98 c-14 -37 -9 -43 35 -51 21 -4 35 -1 43 8 15 18 6 45 -15 45
-18 0 -20 16 -2 23 6 3 -2 6 -18 6 -26 1 -33 -4 -43 -31z m33 12 c3 -5 1 -10
-4 -10 -6 0 -11 5 -11 10 0 6 2 10 4 10 3 0 8 -4 11 -10z m5 -35 c0 -8 -6 -15
-14 -15 -17 0 -28 14 -19 24 12 12 33 6 33 -9z m37 -2 c2 -6 -3 -13 -12 -16
-10 -5 -15 0 -15 14 0 21 21 22 27 2z"/>
<path d="M357 123 c-11 -11 -8 -71 4 -79 8 -4 7 -9 -2 -15 -21 -13 7 -12 32 1
13 8 19 21 19 45 0 19 5 35 10 35 6 0 10 5 10 10 0 11 -63 14 -73 3z m41 -45
c-4 -46 -28 -49 -28 -4 0 26 4 36 16 36 11 0 14 -8 12 -32z"/>
<path d="M590 88 c0 -46 1 -47 33 -50 32 -3 32 -3 9 -16 -20 -11 -27 -11 -49
3 -22 15 -24 22 -19 53 4 26 2 32 -4 22 -15 -23 -12 -66 6 -80 22 -19 72 -16
94 6 10 10 26 25 35 32 19 16 19 36 -1 56 -27 27 -44 20 -44 -19 0 -30 -3 -35
-24 -35 -20 0 -24 4 -21 21 3 12 0 29 -5 38 -7 12 -9 3 -10 -31z m104 13 c9
-14 -4 -41 -20 -41 -8 0 -14 10 -14 25 0 25 23 35 34 16z"/>
<path d="M725 94 c-4 -25 -2 -39 6 -45 17 -10 39 0 48 23 6 16 9 17 18 6 18
-21 0 -40 -43 -47 -20 -3 -39 -12 -40 -19 -1 -7 0 -8 3 -2 2 5 17 10 32 10 31
0 71 25 71 45 0 8 -10 21 -22 29 -12 9 -17 16 -10 16 6 0 12 5 12 10 0 6 -15
10 -34 10 -31 0 -34 -3 -41 -36z m42 10 c-3 -3 -12 -4 -19 -1 -8 3 -5 6 6 6
11 1 17 -2 13 -5z m1 -32 c2 -7 -6 -12 -17 -12 -21 0 -27 11 -14 24 9 9 26 2
31 -12z"/>
<path d="M842 118 c-17 -17 -15 -67 4 -75 8 -3 20 -1 26 5 7 7 16 7 28 -1 14
-8 22 -8 34 2 21 17 21 67 0 75 -24 9 -31 7 -11 -5 18 -11 24 -59 7 -59 -5 0
-13 0 -17 0 -5 -1 -10 14 -13 32 -5 36 -35 49 -58 26z m45 -29 c1 -13 0 -18
-3 -11 -3 6 -15 12 -26 12 -17 0 -18 2 -8 15 18 21 35 14 37 -16z m-17 -24 c0
-8 -4 -15 -9 -15 -13 0 -22 16 -14 24 11 11 23 6 23 -9z"/>
</g>
</svg>
